<svg xmlns="http://www.w3.org/2000/svg" xmlns:svg="http://www.w3.org/2000/svg" xmlns:xlink="http://www.w3.org/1999/xlink" id="svg8" x="0" y="0" version="1.1" viewBox="0 0 128.6 103.6" xml:space="preserve" style="enable-background:new 0 0 128.6 103.6"><style type="text/css">.st0,.st1,.st2{fill:none;stroke:#000;stroke-linecap:round;stroke-linejoin:round}.st1,.st2{fill:#fff;stroke-width:.5}.st2{fill:none}.st3{font-family:&apos;Helvetica&apos;}.st4{font-size:14.0625px}.st5{font-family:&apos;ArialMT&apos;}.st6{font-size:9px}</style><g id="layer1" transform="translate(-13.5,-254.90768)"><path id="path4681" d="M84.9,273v28.3H99" class="st0"/><path id="path4683" d="M99,329.6H73.5" class="st0"/><path id="path4685" d="M127.4,315.5h14.2V358H14v-85 h14.2" class="st0"/><path id="path4662" d="M56.5,273c18.9,0,37.8,0,56.7,0" class="st0"/><rect id="rect4487" width="28.3" height="56.7" x="28.2" y="258.8" class="st1"/><path id="path4495" d="M35.3,315.5l7.1-7.1l7.1,7.1" class="st2"/><text class="st3 st4" transform="matrix(1 0 0 1 119.5224 277.3662)">out</text><g id="g4679" transform="translate(-4.999998,4.913916e-6)"><path id="path4670" d="M104,287.1v24.8l7.1,3.5 L104,319v24.8l28.3-14.2v-28.3L104,287.1" class="st1"/><text class="st5 st4" transform="matrix(1 0 0 1 117.6592 320.4345)">+</text></g><path id="path4687" d="M77.8,265.9L63.6,280" class="st2"/><text class="st5 st4" transform="matrix(1 0 0 1 62.5298 266.9754)">n</text><text class="st5 st6" transform="matrix(1 0 0 1 68.6929 270.1979)">1</text><text class="st5 st4" transform="matrix(1 0 0 1 80.7797 321.9299)">n</text><text class="st5 st6" transform="matrix(1 0 0 1 87.9428 325.1524)">2</text><text class="st5 st4" transform="matrix(1 0 0 1 60.8691 333.6631)">in</text><path id="path4687_1_" d="M95,323.5l-14.2,14.2" class="st2"/></g></svg>